<svg version="1.1" id="Layer_1" xmlns="http://www.w3.org/2000/svg" xmlns:xlink="http://www.w3.org/1999/xlink" x="0px" y="0px"
	 viewBox="0 0 450.38 392.17" style="enable-background:new 0 0 450.38 392.17;" xml:space="preserve">
<path d="M58.3,381.55H6.81c-0.94,0-1.7-0.76-1.7-1.7V14.37c0-0.94,0.76-1.7,1.7-1.7H58.3c0.94,0,1.7,0.76,1.7,1.7v365.48
	C60,380.79,59.24,381.55,58.3,381.55z" fill="#dddddd"/>
<path d="M442.55,381.55h-51.49c-0.94,0-1.7-0.76-1.7-1.7V14.37c0-0.94,0.76-1.7,1.7-1.7h51.49c0.94,0,1.7,0.76,1.7,1.7v365.48
	C444.26,380.79,443.49,381.55,442.55,381.55z" fill="#dddddd"/>
<polygon points="156.34,139.47 82.23,200.4 156.34,258.04 156.34,214.4 293.85,214.4 293.85,258.04 367.95,198.75 295.49,139.47 
	295.49,182.29 155.51,182.29 " fill="#dddddd"/>
</svg>
